<mxfile host="65bd71144e">
    <diagram id="hCz9lnnntM1T9cfL0-n4" name="Page-1">
        <mxGraphModel dx="1074" dy="612" grid="1" gridSize="10" guides="1" tooltips="1" connect="1" arrows="1" fold="1" page="1" pageScale="1" pageWidth="827" pageHeight="583" math="0" shadow="0">
            <root>
                <mxCell id="0"/>
                <mxCell id="1" parent="0"/>
                <mxCell id="QOGVYV6UI0j8DMHGUwdB-3" value="" style="edgeStyle=orthogonalEdgeStyle;rounded=0;orthogonalLoop=1;jettySize=auto;html=1;" parent="1" source="QOGVYV6UI0j8DMHGUwdB-1" target="QOGVYV6UI0j8DMHGUwdB-2" edge="1">
                    <mxGeometry relative="1" as="geometry"/>
                </mxCell>
                <mxCell id="QOGVYV6UI0j8DMHGUwdB-1" value="Config Object" style="rounded=0;whiteSpace=wrap;html=1;" parent="1" vertex="1">
                    <mxGeometry x="40" y="80" width="120" height="60" as="geometry"/>
                </mxCell>
                <mxCell id="QOGVYV6UI0j8DMHGUwdB-2" value="Build File Path" style="rounded=0;whiteSpace=wrap;html=1;" parent="1" vertex="1">
                    <mxGeometry x="240" y="80" width="120" height="60" as="geometry"/>
                </mxCell>
                <mxCell id="QOGVYV6UI0j8DMHGUwdB-10" value="File exists" style="rounded=0;whiteSpace=wrap;html=1;" parent="1" vertex="1">
                    <mxGeometry x="440" y="80" width="120" height="60" as="geometry"/>
                </mxCell>
                <mxCell id="QOGVYV6UI0j8DMHGUwdB-11" value="Get Content" style="rounded=0;whiteSpace=wrap;html=1;" parent="1" vertex="1">
                    <mxGeometry x="840" y="80" width="120" height="60" as="geometry"/>
                </mxCell>
                <mxCell id="QOGVYV6UI0j8DMHGUwdB-16" value="File old" style="rounded=0;whiteSpace=wrap;html=1;" parent="1" vertex="1">
                    <mxGeometry x="640" y="80" width="120" height="60" as="geometry"/>
                </mxCell>
                <mxCell id="QOGVYV6UI0j8DMHGUwdB-17" value="" style="edgeStyle=orthogonalEdgeStyle;rounded=0;orthogonalLoop=1;jettySize=auto;html=1;" parent="1" edge="1">
                    <mxGeometry relative="1" as="geometry">
                        <mxPoint x="360" y="109.71000000000001" as="sourcePoint"/>
                        <mxPoint x="440" y="109.71000000000001" as="targetPoint"/>
                    </mxGeometry>
                </mxCell>
                <mxCell id="QOGVYV6UI0j8DMHGUwdB-18" value="" style="edgeStyle=orthogonalEdgeStyle;rounded=0;orthogonalLoop=1;jettySize=auto;html=1;" parent="1" edge="1">
                    <mxGeometry relative="1" as="geometry">
                        <mxPoint x="560" y="109.71000000000001" as="sourcePoint"/>
                        <mxPoint x="640" y="109.71000000000001" as="targetPoint"/>
                    </mxGeometry>
                </mxCell>
                <mxCell id="QOGVYV6UI0j8DMHGUwdB-19" value="" style="edgeStyle=orthogonalEdgeStyle;rounded=0;orthogonalLoop=1;jettySize=auto;html=1;" parent="1" edge="1">
                    <mxGeometry relative="1" as="geometry">
                        <mxPoint x="760" y="109.71000000000004" as="sourcePoint"/>
                        <mxPoint x="840" y="109.71000000000004" as="targetPoint"/>
                    </mxGeometry>
                </mxCell>
                <mxCell id="QOGVYV6UI0j8DMHGUwdB-20" value="&lt;div align=&quot;left&quot;&gt;&lt;ul&gt;&lt;li&gt;Use Home&lt;/li&gt;&lt;li&gt;Path&lt;/li&gt;&lt;li&gt;FileName&lt;/li&gt;&lt;li&gt;File Age&lt;/li&gt;&lt;li&gt;&lt;div&gt;Return Content&lt;br&gt;&lt;/div&gt;&lt;/li&gt;&lt;li&gt;Write&lt;/li&gt;&lt;/ul&gt;&lt;/div&gt;" style="text;html=1;strokeColor=none;fillColor=none;align=left;verticalAlign=middle;whiteSpace=wrap;rounded=0;" parent="1" vertex="1">
                    <mxGeometry x="40" y="160" width="140" height="85" as="geometry"/>
                </mxCell>
                <mxCell id="2" value="Build File Path" style="rounded=0;whiteSpace=wrap;html=1;" vertex="1" parent="1">
                    <mxGeometry x="240" y="160" width="120" height="60" as="geometry"/>
                </mxCell>
                <mxCell id="3" value="Write Content" style="rounded=0;whiteSpace=wrap;html=1;" vertex="1" parent="1">
                    <mxGeometry x="840" y="160" width="120" height="60" as="geometry"/>
                </mxCell>
                <mxCell id="4" value="" style="edgeStyle=orthogonalEdgeStyle;rounded=0;orthogonalLoop=1;jettySize=auto;html=1;entryX=0;entryY=0.5;entryDx=0;entryDy=0;" edge="1" parent="1" target="3">
                    <mxGeometry relative="1" as="geometry">
                        <mxPoint x="360" y="189.71000000000004" as="sourcePoint"/>
                        <mxPoint x="440" y="189.71000000000004" as="targetPoint"/>
                    </mxGeometry>
                </mxCell>
            </root>
        </mxGraphModel>
    </diagram>
</mxfile>